<svg version="1.2" xmlns="http://www.w3.org/2000/svg" xmlns:xlink="http://www.w3.org/1999/xlink" overflow="visible" preserveAspectRatio="none" viewBox="0 0 24 24" width="93" height="93"><g><path xmlns:default="http://www.w3.org/2000/svg" id="quote-left" d="M11.33,13.33c0-1.1-0.9-2-2-2H7c-0.55,0-1-0.45-1-1V10C6,8.53,7.19,7.34,8.67,7.34h0.66  C9.69,7.33,9.99,7.04,10,6.67V5.34c-0.01-0.37-0.3-0.66-0.67-0.67H8.67c-0.71,0-1.42,0.14-2.07,0.42c-1.28,0.54-2.3,1.56-2.84,2.84  C3.47,8.58,3.33,9.29,3.34,10v7.33c0,1.1,0.9,2,2,2c0,0,0,0,0,0h4c1.1,0,2-0.9,2-2v-4l0,0H11.33z M20.66,13.33c0-1.1-0.9-2-2-2  h-2.33c-0.55,0-1-0.45-1-1V10c0.01-1.47,1.2-2.66,2.67-2.66h0.67c0.37-0.01,0.66-0.3,0.67-0.67V5.34c-0.01-0.37-0.3-0.66-0.67-0.67  H18c-0.71,0-1.42,0.14-2.07,0.42c-1.28,0.54-2.3,1.56-2.84,2.84C12.8,8.58,12.66,9.29,12.67,10v7.33c0,1.1,0.9,2,2,2h4  c1.1,0,2-0.9,2-2v-4l0,0H20.66z" style="fill: rgb(232, 232, 232);" vector-effect="non-scaling-stroke"/></g></svg>